<?xml version="1.0" standalone="no"?>
<!DOCTYPE svg PUBLIC "-//W3C//DTD SVG 1.1//EN" "http://www.w3.org/Graphics/SVG/1.1/DTD/svg11.dtd" >
<svg xmlns="http://www.w3.org/2000/svg">
<metadata>
This is a custom SVG webfont generated by Font Squirrel.
Copyright   : 19911992 General Electric Company RWE
</metadata>
<defs>
<font id="GEsansLight45Italic" horiz-adv-x="1134" >
<font-face units-per-em="2048" ascent="1638" descent="-410" />
<missing-glyph horiz-adv-x="569" />
<glyph unicode=" "  horiz-adv-x="569" />
<glyph unicode="&#x09;" horiz-adv-x="569" />
<glyph unicode="&#xa0;" horiz-adv-x="569" />
<glyph unicode="!" horiz-adv-x="485" d="M170 -2l51 168h164l-51 -168h-164zM301 350l315 1123h168l-370 -1123h-113z" />
<glyph unicode="&#x22;" horiz-adv-x="632" d="M510 1104l106 375h121l-123 -375h-104zM741 1104l105 375h123l-125 -375h-103z" />
<glyph unicode="#" horiz-adv-x="1140" d="M39 500l37 121h350l88 253h-373l41 121h375l178 502h144l-177 -502h261l174 502h145l-180 -504h334l-39 -119h-338l-88 -253h358l-33 -121h-366l-178 -498h-142l176 498h-258l-174 -498h-147l174 498h-342zM569 621h260l89 253h-256z" />
<glyph unicode="$" horiz-adv-x="1155" d="M215 338q0 47 16 102q2 8 9 23h135q-14 -49 -15 -90q0 -115 115 -154q37 -12 117 -16l172 561q-78 18 -115 33q-186 76 -186 247q0 51 18 113q51 168 234 273q152 86 280 86l39 126h88l-39 -129q172 0 260 -73q78 -66 78 -168q0 -43 -12 -84h-137q4 18 10 37v22 q0 78 -68.5 116t-164.5 38l-162 -533q188 -68 233 -96q113 -72 113 -194q0 -55 -21 -119q-51 -170 -217 -273q-156 -96 -342 -96l-39 -129h-92l39 127q-197 0 -282 84q-64 62 -64 166zM606 1085q0 -125 199 -190l153 504q-133 0 -231 -84q-84 -72 -111 -164q-10 -31 -10 -66 zM686 199q109 18 166 41q174 70 217 211q16 53 16 86q0 68 -54 110.5t-181 89.5z" />
<glyph unicode="%" horiz-adv-x="2107" d="M616 774q0 57 19 119q45 145 141 227t217 82q94 0 140 -53q37 -43 36 -125q0 -68 -22 -139q-43 -141 -140.5 -220t-220.5 -79q-86 0 -128 51t-42 137zM627 -47l1110 1292h98l-1114 -1292h-94zM707 784q0 -127 108 -127q96 0 164 82q49 59 73.5 141.5t24.5 135.5 q0 111 -104 110q-90 0 -160 -73q-57 -61 -88 -160q-18 -60 -18 -109zM1305 193q0 53 18 114q45 147 143.5 229t214.5 82q96 0 141.5 -51t45.5 -137q0 -59 -23 -131q-45 -150 -164 -231q-98 -68 -194 -68q-90 0 -136 51.5t-46 141.5zM1399 197q0 -53 25.5 -87t86.5 -34 q86 0 156 74q59 63 88 157l11 47q7 31 8 66q0 57 -25 91t-84 34q-92 0 -162 -80q-57 -66 -86 -164q-8 -23 -13 -48t-5 -56z" />
<glyph unicode="&#x26;" horiz-adv-x="1503" d="M225 295q0 37 11 84q43 176 249 323q223 131 271 162l-68 133q-31 72 -31 138q0 35 2.5 51t14.5 53q39 123 156.5 193.5t246.5 70.5t195.5 -51t66.5 -143q0 -45 -14 -88q-27 -84 -127 -178.5t-254 -186.5l295 -463q55 41 158 248q76 150 119 301h126q-18 -59 -73 -186 l-53 -119q-90 -172 -109 -201q-43 -66 -107 -133l191 -303h-188l-119 197q-156 -125 -269 -168q-23 -8 -143 -33q-29 -6 -123 -6q-41 0 -96 2t-98 16q-109 37 -169.5 111t-60.5 176zM371 344q0 -104 75 -174q86 -78 236 -78q115 0 219.5 45t228.5 144l-317 497 q-174 -90 -286.5 -182t-141.5 -166q-14 -41 -14 -86zM803 1176q0 -74 47 -158q14 -29 49 -72q98 63 137 94q123 94 152 189q4 10 7 26.5t3 28.5q0 47 -27 74q-37 35 -118 35q-104 0 -168 -52q-51 -41 -74 -106q-8 -24 -8 -59z" />
<glyph unicode="'" horiz-adv-x="409" d="M510 1104l106 375h121l-123 -375h-104z" />
<glyph unicode="(" horiz-adv-x="837" d="M420 225q0 109 10 234t35 209l39 131q31 98 137 284q88 154 203 330q96 147 139 201h84q-84 -125 -234.5 -402.5t-173.5 -345.5l-69 -227q-20 -72 -34.5 -209t-25.5 -274v-308h-79q-16 131 -19 150q-12 110 -12 227z" />
<glyph unicode=")" horiz-adv-x="880" d="M305 -150l187 308q86 150 148 276.5t85 204.5l70 227q16 53 33.5 332t17.5 416h84q6 -31 12 -141.5t6 -241.5q0 -195 -8 -280t-29 -150l-41 -133q-23 -76 -104 -228q-57 -109 -121 -215q-53 -86 -119 -180l-141 -195h-80z" />
<glyph unicode="*" horiz-adv-x="1196" d="M549 1092l37 122l315 -22l-115 256l129 63l62 -276l223 278l90 -57l-258 -262l322 25l-37 -119l-307 18l98 -262l-127 -59l-49 282l-227 -286l-89 61l258 262z" />
<glyph unicode="+" horiz-adv-x="978" d="M154 403l34 111h404l123 401h108l-123 -401h402l-35 -111h-401l-123 -403h-109l123 403h-403z" />
<glyph unicode="," horiz-adv-x="552" d="M72 -254l221 420h168l-219 -328l-62 -92h-108z" />
<glyph unicode="-" horiz-adv-x="552" d="M121 395l39 125h553l-39 -125h-553z" />
<glyph unicode="." horiz-adv-x="585" d="M213 -6l55 178h156l-55 -178h-156z" />
<glyph unicode="/" horiz-adv-x="710" d="M-141 2l1315 1475h129l-1315 -1475h-129z" />
<glyph unicode="0" d="M209 422q0 131 33 278q74 352 207 531q162 217 430 217q180 0 268 -117q82 -109 82 -315q0 -66 -10.5 -145.5t-28.5 -172.5q-74 -346 -235.5 -532t-405.5 -186q-180 0 -266 131q-74 112 -74 311zM346 414q0 -150 47 -230q55 -94 176 -94q201 0 336 213q100 160 150 395 q18 78 27.5 152t9.5 149q0 152 -50 236q-59 102 -188 102q-141 0 -244 -104q-88 -88 -149 -248q-43 -111 -80 -283q-14 -72 -24.5 -148.5t-10.5 -139.5z" />
<glyph unicode="1" d="M573 0l390 1276l-127 -80q-84 -45 -263 -127l39 129q80 31 209 102q111 61 197 119h127l-434 -1419h-138z" />
<glyph unicode="2" d="M119 0l41 137l143 94q156 106 213 158l172 135q188 152 295 258q162 162 195 269q16 53 16 98q0 80 -45 123q-51 49 -162 49q-156 0 -262 -94q-86 -78 -125 -199h-149l45 96q61 113 137 179.5t190.5 105.5t204.5 39q139 0 229.5 -69.5t90.5 -194.5q0 -59 -21 -123 q-33 -104 -139 -227q-82 -94 -244 -234q-129 -115 -293 -238l-239 -172l-99 -67h746l-37 -123h-903z" />
<glyph unicode="3" d="M162 260q0 25 4 53.5t10 57.5h137q-14 -35 -14 -72q0 -88 77 -150.5t187 -62.5q137 0 258 70q141 80 183 219q18 61 18 106q0 117 -111 164q-82 35 -235 35l33 108h24q92 0 166 19q242 61 301 278q10 31 10 66q0 78 -47 125q-63 63 -200 63q-164 0 -267 -75 q-88 -66 -145 -197h-139l57 98q78 111 184 183q152 100 330 100q197 0 289 -82q78 -70 78 -186q0 -57 -21 -123q-33 -111 -137 -195q-94 -76 -246 -127q90 -20 144 -82q63 -72 63 -182q0 -51 -14 -106q-33 -127 -174 -240q-182 -145 -437 -145q-207 0 -297 90 q-69 69 -69 190z" />
<glyph unicode="4" d="M154 324l41 135l925 960h166l-301 -987h225l-34 -108h-224l-98 -324h-133l98 324h-665zM305 432h551l260 856z" />
<glyph unicode="5" d="M201 285q0 33 6 69l147 -2q-4 -29 -6 -41t-2 -22q0 -94 74 -148q66 -47 164 -47q143 0 267 101.5t175 265.5q25 84 25 147q0 104 -60.5 156.5t-171.5 52.5q-129 0 -231 -65q-90 -57 -137 -156h-138l74 229l207 594h792l-34 -110h-666l-176 -521q94 90 238 125 q47 10 126 17q152 0 235 -83t83 -224q0 -76 -29 -172q-66 -217 -256 -351q-174 -121 -368 -120q-123 0 -220 71q-118 89 -118 234z" />
<glyph unicode="6" d="M227 315q0 82 17.5 170t50.5 195q131 430 356 620q174 147 404 148q184 0 288 -137q16 -23 26.5 -52.5t10.5 -76.5q0 -39 -5 -63.5t-13 -43.5l-127 2q10 31 10 70q0 82 -56 135t-167 53t-200 -47t-165 -139q-104 -127 -184 -326q-27 -66 -59 -174l157 135q135 92 295 93 q158 0 246 -80t88 -215q0 -68 -24 -148q-61 -201 -233.5 -327.5t-373.5 -126.5q-184 0 -268 96q-74 83 -74 239zM365 301q0 -98 59 -153.5t180 -55.5q141 0 265 99.5t173 254.5q18 61 19 113q0 96 -61.5 151.5t-180.5 55.5q-135 0 -259 -93t-169 -227q-26 -77 -26 -145z" />
<glyph unicode="7" d="M319 0l965 1298h-768l37 121h911l-39 -129l-952 -1290h-154z" />
<glyph unicode="8" d="M72 276q0 43 16 103q43 147 164 246q106 86 244 112q-111 49 -154 90q-55 51 -55 129q0 39 16 99q53 182 229 293q162 100 359 100q143 0 242 -64q119 -76 118 -217q0 -43 -16 -104q-33 -115 -119 -189q-41 -37 -250 -131q104 -37 157.5 -100t53.5 -158q0 -45 -16 -106 q-59 -199 -254 -307q-162 -90 -354 -90q-166 0 -273.5 80.5t-107.5 213.5zM211 289q0 -94 72.5 -146.5t195.5 -52.5q158 0 279 81t160 208q16 55 16 102q0 96 -65.5 151.5t-206.5 55.5q-186 0 -306 -100q-96 -82 -131 -207q-14 -45 -14 -92zM420 979q0 -90 73.5 -136 t196.5 -46q137 0 244 57q131 70 170 207q14 49 14 92q0 98 -73.5 145.5t-184.5 47.5q-195 0 -315 -111q-82 -76 -113 -180q-12 -43 -12 -76z" />
<glyph unicode="9" d="M158 274q0 37 6 64q0 4 4 12h137q-6 -29 -6 -53q0 -88 60.5 -146.5t175.5 -58.5q20 -2 28 -2q94 0 175 50t145 136q88 127 151 326q20 66 45 174l-145 -135q-127 -92 -287 -92q-168 0 -265 91t-97 245q0 51 12 106q43 201 201.5 329t361.5 128t297 -121q80 -102 80 -291 q0 -66 -9 -132t-28 -159q-90 -430 -297 -618q-162 -147 -391 -147q-190 0 -301 135q-31 37 -42 76.5t-11 82.5zM422 893q0 -106 67.5 -170t192.5 -64q137 0 252 94.5t149 227.5q14 55 15 113q0 113 -65.5 176t-196.5 63q-141 0 -255 -100t-149 -252q-10 -51 -10 -88z" />
<glyph unicode=":" horiz-adv-x="577" d="M205 0l53 174h164l-53 -174h-164zM465 850l51 170h164l-51 -170h-164z" />
<glyph unicode=";" horiz-adv-x="585" d="M45 -254l221 420h168l-219 -328l-61 -92h-109zM475 854l53 170h166l-53 -170h-166z" />
<glyph unicode="&#x3c;" horiz-adv-x="1161" d="M264 684l33 109l1206 499l-33 -108l-1071 -447l799 -442l-33 -111z" />
<glyph unicode="=" horiz-adv-x="1017" d="M156 395l32 109h916l-33 -109h-915zM258 729l33 109h915l-32 -109h-916z" />
<glyph unicode="&#x3e;" horiz-adv-x="1161" d="M117 184l33 111l1069 442l-797 447l33 108l899 -499l-33 -109z" />
<glyph unicode="?" horiz-adv-x="1011" d="M336 0l51 166h162l-51 -166h-162zM453 311l69 226q10 23 21 35l30 40q43 43 195 158q248 184 295 336q14 45 14 86q0 84 -61.5 124t-153.5 40q-61 -2 -128.5 -7.5t-112.5 -21.5l34 111q63 12 115.5 17t103.5 5q35 0 55 -2l40 -4q113 -14 174 -70q70 -63 69 -174 q0 -53 -18 -118q-29 -96 -98 -174q-41 -45 -140 -125l-204 -156q-102 -78 -123 -131l-64 -195h-112z" />
<glyph unicode="@" horiz-adv-x="1634" d="M293 547q0 102 33 213q98 319 395 545q287 217 579 217q254 0 412 -109q168 -117 168 -317q0 -82 -27 -170q-49 -164 -155 -303q-164 -211 -383 -211q-76 0 -122 42t-34 70q-29 -27 -65 -49q-111 -68 -226 -67q-82 0 -140 52t-58 144q0 43 18 98q59 168 209 320 q170 172 332 172q109 0 153 -39q29 -25 45 -84l58 100h114l-79 -129l-154 -256q-88 -154 -97 -182.5t-9 -50.5q0 -33 23.5 -42t70.5 -9q86 0 198 90q152 121 217 338q23 74 23 147q0 166 -134 261.5t-384 95.5q-260 0 -513 -200t-339 -474q-31 -98 -31 -195q0 -190 121 -309 q129 -127 362 -127q133 0 291 47t357 143l10 -81q-14 -25 -223 -103q-258 -96 -461 -96q-254 0 -404.5 140.5t-150.5 367.5zM780 627q0 -68 56 -101q39 -23 96 -22q106 0 235 135q119 127 160 254q6 20 11 46t5 46q0 59 -34.5 88t-87.5 29q-115 0 -249 -124t-179 -276 q-13 -42 -13 -75z" />
<glyph unicode="A" horiz-adv-x="1347" d="M23 0l1028 1479h155l119 -1479h-119l-32 399h-750l-279 -399h-122zM504 516h657l-74 836z" />
<glyph unicode="B" horiz-adv-x="1400" d="M215 0l453 1479h379q211 0 280.5 -17.5t138.5 -75.5q29 -27 45.5 -73.5t16.5 -100.5q0 -45 -12 -88q-41 -137 -160 -231q-94 -76 -213 -111q86 -18 143 -67q88 -74 88 -197q0 -59 -20 -127q-31 -102 -109 -186q-70 -74 -163 -120t-212 -69q-90 -16 -184 -16h-471z M387 117h340q139 0 258 51q178 76 229 248q14 51 15 84q0 96 -68 153q-74 63 -203 64h-387zM606 834h352q72 0 140 18q92 25 149 76q49 41 86 106q45 80 45 148q0 43 -20 78q-35 61 -95.5 81.5t-181.5 20.5h-313z" />
<glyph unicode="C" horiz-adv-x="1488" d="M326 479q0 145 57 336q115 371 377 549q199 135 426 135q291 0 389 -164q47 -80 47 -235h-149v39q0 104 -46 159q-74 92 -270 93q-168 0 -321 -121q-190 -150 -295 -443q-59 -170 -60 -311q0 -195 104.5 -308.5t262.5 -113.5q166 0 289 103q94 78 110 149h154 q-16 -100 -160 -217q-184 -150 -428 -149q-188 0 -321 106q-166 133 -166 393z" />
<glyph unicode="D" horiz-adv-x="1497" d="M182 0l453 1479h512q98 0 196 -35q166 -59 230 -195q45 -98 45 -215q0 -66 -13.5 -138.5t-39.5 -158.5q-59 -195 -166 -346q-94 -135 -209 -213q-158 -109 -369 -151q-129 -27 -250 -27h-389zM354 117h318q96 0 215 35q217 63 344 215q111 129 196 374q25 66 34 132.5 t9 132.5q0 35 -2 58t-6 44q-27 123 -128 188.5t-285 65.5h-314z" />
<glyph unicode="E" horiz-adv-x="1206" d="M170 0l453 1479h882l-37 -117h-745l-164 -539h721l-37 -116h-721l-180 -590h791l-35 -117h-928z" />
<glyph unicode="F" horiz-adv-x="1171" d="M213 0l453 1479h833l-37 -117h-696l-164 -539h672l-37 -116h-672l-215 -707h-137z" />
<glyph unicode="G" horiz-adv-x="1486" d="M303 471q0 127 43 272q74 248 191 418q98 141 227 228q96 63 201.5 91.5t201.5 28.5q106 0 189.5 -22.5t111.5 -42.5q74 -57 109 -125q43 -84 43 -205h-137q0 115 -33 170t-115 86t-159 31q-96 0 -193.5 -39t-185.5 -113q-102 -82 -185 -237q-68 -129 -116 -299 q-31 -115 -31 -213q0 -184 96 -291q104 -115 297 -115q104 0 203 19q43 8 141 34l146 480h-428l36 112h566l-209 -676q-109 -31 -217.5 -57t-221.5 -26q-190 0 -339 81q-232 127 -232 410z" />
<glyph unicode="H" horiz-adv-x="1511" d="M209 0l453 1479h139l-201 -656h819l201 656h137l-452 -1479h-138l215 707h-819l-215 -707h-139z" />
<glyph unicode="I" horiz-adv-x="438" d="M152 0l452 1479h137l-452 -1479h-137z" />
<glyph unicode="J" horiz-adv-x="1032" d="M119 223q0 37 6 70t18 72h136q-14 -45 -15 -93q0 -76 51.5 -122t163.5 -46q121 0 226.5 99.5t150.5 247.5l315 1028h138l-299 -975q-82 -264 -246 -402q-147 -123 -332 -122q-176 0 -254 77q-59 60 -59 166z" />
<glyph unicode="K" horiz-adv-x="1253" d="M205 0l452 1479h138l-207 -676l862 676h164l-881 -688l496 -791h-176l-480 754l-231 -754h-137z" />
<glyph unicode="L" horiz-adv-x="1150" d="M211 0l453 1479h137l-418 -1362h747l-34 -117h-885z" />
<glyph unicode="M" horiz-adv-x="1955" d="M199 0l452 1479h217l170 -1295l967 1295h205l-453 -1479h-137l416 1358l-1000 -1358h-110l-174 1358l-416 -1358h-137z" />
<glyph unicode="N" horiz-adv-x="1464" d="M170 0l453 1479h153l434 -1307l400 1307h137l-453 -1479h-172l-426 1276l-389 -1276h-137z" />
<glyph unicode="O" horiz-adv-x="1597" d="M315 496q0 115 35 231q109 360 299 545q227 221 600 221q199 0 326 -147.5t127 -378.5q0 -61 -6 -114.5t-25 -115.5q-111 -401 -358 -598q-209 -166 -482 -166q-258 0 -395 160q-121 140 -121 363zM467 504q0 -184 96 -293q106 -121 307 -121q221 0 390.5 173t257.5 480 q29 104 28 203q0 184 -88 303q-96 131 -266 131q-268 0 -449 -186q-164 -170 -247 -483q-14 -53 -21.5 -102.5t-7.5 -104.5z" />
<glyph unicode="P" horiz-adv-x="1247" d="M213 0l453 1479h475q164 0 233 -33q47 -23 101 -96q25 -31 37 -75t12 -87q0 -137 -88 -269.5t-231.5 -199t-321.5 -66.5h-332l-201 -653h-137zM586 770h346q225 0 354 148q45 51 70.5 117.5t25.5 129.5q0 59 -24 101q-33 53 -98.5 74.5t-116.5 21.5h-377z" />
<glyph unicode="Q" horiz-adv-x="1597" d="M305 498q0 119 33 235q41 156 94 262q47 94 133 205q102 131 266 215t334 84q195 0 334 -98q156 -111 184 -314q4 -25 6.5 -55.5t2.5 -58.5q0 -162 -58 -324q-4 -12 -67 -151q-39 -92 -103 -174q-98 -127 -247 -218l348 17l-25 -115q-174 -2 -352 -6t-209 -12 q-47 -10 -141 -10q-262 0 -404 149q-129 138 -129 369zM453 504q0 -184 94 -293q102 -119 297 -119q233 0 424 203q174 184 241 448q16 55 22.5 104.5t6.5 106.5q0 193 -101.5 310.5t-269.5 117.5q-127 0 -233.5 -49t-198.5 -141q-84 -86 -148.5 -208t-99 -244.5 t-34.5 -235.5z" />
<glyph unicode="R" horiz-adv-x="1460" d="M211 0l453 1479h569q86 0 166 -29q102 -37 141 -102q12 -23 19.5 -51.5t7.5 -71.5q0 -57 -16.5 -111.5t-60.5 -121t-119 -117t-208 -93.5q90 -20 129 -73q33 -45 33 -127q0 -47 -6 -90l-19 -95q-41 -195 -49 -241.5t-8 -75.5q2 -41 2 -80h-145q-4 25 -4 43 q0 72 34.5 229.5t38.5 178.5q12 68 13 114q0 80 -35 115t-107 35h-473l-219 -715h-137zM602 831h348q160 0 277 62q135 72 180 211q14 45 14 88q0 90 -71.5 130t-186.5 40h-399z" />
<glyph unicode="S" horiz-adv-x="1259" d="M225 340q0 29 2 43h142q0 -156 112 -227q86 -55 224 -56q129 0 239 78q135 94 135 256q0 88 -108 174q-35 27 -205 129q-135 84 -166 109q-133 104 -133 262q0 162 152.5 277.5t367.5 115.5q123 0 203 -22q109 -31 184 -113q14 -16 33.5 -64.5t19.5 -95.5q0 -27 -6 -51 h-135q2 12 2 35q0 115 -121 164q-84 35 -206 35q-123 0 -226 -68q-123 -82 -123 -217q0 -104 281 -277q203 -129 221 -145q115 -100 115 -244q0 -190 -160 -323t-379 -133q-166 0 -291 67q-174 94 -174 291z" />
<glyph unicode="T" horiz-adv-x="1175" d="M457 1362l37 117h1093l-37 -117h-479l-416 -1362h-135l416 1362h-479z" />
<glyph unicode="U" horiz-adv-x="1484" d="M326 332q0 98 26 192l293 955h137l-268 -873q-45 -150 -45 -219q-2 -12 -2 -37q0 -117 73.5 -186.5t211.5 -69.5q219 0 395 154q55 47 102 130t76 173l285 928h137l-297 -967q-23 -78 -68 -155.5t-96 -137.5q-98 -113 -272 -180q-154 -59 -297 -59q-233 0 -344 155 q-25 35 -36 84.5t-11 112.5z" />
<glyph unicode="V" horiz-adv-x="1253" d="M463 1479h145l72 -1336l887 1336h131l-989 -1479h-154z" />
<glyph unicode="W" horiz-adv-x="2045" d="M440 0l15 1479h141l-18 -1356l808 1356h162l94 -1354l719 1354h129l-798 -1479h-183l-79 1348l-799 -1348h-191z" />
<glyph unicode="X" horiz-adv-x="1267" d="M14 0l764 754l-280 725h172l229 -629l631 629h145l-737 -721l301 -758h-166l-254 659l-655 -659h-150z" />
<glyph unicode="Y" horiz-adv-x="1255" d="M471 1475h162l231 -717l682 721h144l-797 -846l-193 -633h-137l195 635z" />
<glyph unicode="Z" horiz-adv-x="1140" d="M51 0l41 135l1258 1227h-822l37 117h975l-41 -131l-1266 -1231h914l-35 -117h-1061z" />
<glyph unicode="[" horiz-adv-x="585" d="M119 -182l547 1788h292l-26 -84h-184l-492 -1610h180l-28 -94h-289z" />
<glyph unicode="\" horiz-adv-x="710" d="M305 1468h127l416 -1474h-129z" />
<glyph unicode="]" horiz-adv-x="585" d="M70 -174l28 92h181l491 1610h-184l26 84h293l-547 -1786h-288z" />
<glyph unicode="^" horiz-adv-x="1208" d="M258 393l821 1053h109l178 -1053h-109l-161 934l-727 -934h-111z" />
<glyph unicode="_" horiz-adv-x="1122" d="M-8 -147h1134v-107h-1134v107z" />
<glyph unicode="`" horiz-adv-x="520" d="M498 1401h125l118 -230h-90z" />
<glyph unicode="a" horiz-adv-x="1052" d="M158 197q0 35 12 75q37 121 139 207q78 66 162 92.5t170 36.5t180 10q35 0 67 -1t60 -1l37 123q14 43 14 82q0 135 -196 135q-125 0 -200 -49t-99 -133h-129q33 111 153 191q131 88 295 88q303 0 303 -209q0 -57 -20 -121l-164 -535q-12 -41 -31 -133q-10 -45 -8 -55 h-125l21 72q25 86 28 102q-104 -106 -219 -156q-90 -39 -176 -38q-82 0 -135 18q-68 25 -104 76q-16 23 -25.5 53.5t-9.5 69.5zM291 225q0 -68 49 -108.5t133 -40.5q168 0 279 106q96 92 145 267l25 77q-70 -2 -169.5 -4t-166.5 -12q-104 -18 -182 -77.5t-103 -143.5 q-10 -37 -10 -64z" />
<glyph unicode="b" horiz-adv-x="1150" d="M156 0q6 14 32 100q43 137 93 265l342 1114h127l-183 -594q164 168 394 168q141 0 214.5 -92.5t73.5 -237.5q0 -49 -6 -94t-22 -94q-90 -291 -265 -435q-147 -121 -331 -120q-125 0 -203 67q-47 41 -86 121l-57 -168h-123zM418 315q0 -104 58.5 -168.5t174.5 -64.5 q162 0 285 139q100 113 156 295q37 117 36 211q0 106 -53 163.5t-170 57.5q-162 0 -280 -117q-109 -106 -166 -294q-16 -53 -28.5 -116t-12.5 -106z" />
<glyph unicode="c" horiz-adv-x="1026" d="M219 403q0 66 29 150q31 76 33 84q82 209 233 317q137 98 299 99q178 0 266 -99q72 -80 72 -209q0 -27 -2 -38h-135q0 139 -60 194q-45 43 -137 43q-170 0 -285 -131q-88 -100 -151 -287q-31 -96 -31 -176q0 -123 62.5 -193.5t177.5 -70.5q86 0 155 43q94 57 150 184h139 q-35 -113 -116 -198q-129 -135 -330 -135q-195 0 -289 129q-80 108 -80 294z" />
<glyph unicode="d" horiz-adv-x="1142" d="M227 301q0 100 39 231q72 240 209 373q152 147 367 148q123 0 187.5 -43t98.5 -131l185 600h127l-342 -1121q-25 -104 -57.5 -215.5t-39.5 -142.5h-120l41 168q-80 -76 -156 -119q-121 -70 -244 -69q-117 0 -196 69q-99 86 -99 252zM340 307q0 -102 47 -155 q55 -63 178 -64q178 0 305 145q98 113 154 295q33 104 33 195q0 106 -53.5 165.5t-169.5 59.5q-168 0 -289 -127q-109 -113 -170 -315q-35 -111 -35 -199z" />
<glyph unicode="e" horiz-adv-x="1140" d="M219 344q0 72 19 139q76 287 249 435q160 135 377 135q195 0 281 -105q68 -82 67 -225q0 -70 -12 -135q-18 -74 -22 -94h-799q-23 -86 -23 -150q0 -125 72 -192.5t197 -67.5q135 0 223 63q70 51 115 146h139q-57 -147 -183 -230t-296 -83q-209 0 -314 110q-90 96 -90 254 zM410 588h657q6 20 11 58t5 59q0 100 -43 163q-55 82 -180 82q-182 0 -313 -133q-98 -98 -137 -229z" />
<glyph unicode="f" horiz-adv-x="694" d="M262 0l281 920h-207l31 96h206l72 237q23 76 70 127q37 41 96 74q29 14 66.5 21.5t76.5 7.5q41 0 73 -4t56 -6l-32 -109q-12 0 -44 2t-49 2q-72 0 -112 -25q-57 -33 -82 -120l-64 -207h236l-31 -96h-235l-281 -920h-127z" />
<glyph unicode="g" horiz-adv-x="1161" d="M86 -199q0 16 3 38t11 46h140q-8 -27 -9 -53q0 -74 78 -108q59 -27 144 -27q168 0 275.5 87t154.5 241l49 163q-51 -74 -184 -137q-109 -51 -209 -51q-139 0 -218 91t-79 241q0 92 30 196q88 289 269 422q139 102 303 103q129 0 209 -64q43 -35 92 -115l49 150h131 l-76 -207l-225 -737q-33 -104 -51 -146q-47 -98 -125 -176q-164 -164 -438 -164q-162 0 -243 55.5t-81 151.5zM358 348q0 -113 55.5 -180.5t161.5 -67.5q174 0 302 142q102 115 151 276q29 98 29 174q0 121 -62.5 189.5t-173.5 68.5q-141 0 -266 -129q-57 -57 -100 -137 t-70 -166t-27 -170z" />
<glyph unicode="h" horiz-adv-x="1138" d="M174 0l453 1479h127l-185 -602q86 102 222 147q86 29 163 29q137 0 201 -74q53 -61 53 -168q0 -41 -4 -65.5t-20 -79.5l-203 -666h-127l182 598q33 111 33 180q0 162 -172 162q-158 0 -272 -102q-94 -84 -131 -205l-193 -633h-127z" />
<glyph unicode="i" horiz-adv-x="460" d="M168 0l315 1032h127l-315 -1032h-127zM567 1307l47 155h127l-47 -155h-127z" />
<glyph unicode="j" horiz-adv-x="450" d="M-117 -408l33 109q12 -2 23 -2h20q82 0 121 55q25 35 55 140l346 1134h127l-364 -1198q-23 -68 -43 -106q-35 -66 -88 -97q-25 -14 -78.5 -24.5t-151.5 -10.5zM567 1307l47 155h127l-47 -155h-127z" />
<glyph unicode="k" horiz-adv-x="1019" d="M168 0l453 1479h127l-273 -891l631 442h160l-664 -455l379 -575h-172l-346 547l-168 -547h-127z" />
<glyph unicode="l" horiz-adv-x="460" d="M168 0l453 1479h127l-453 -1479h-127z" />
<glyph unicode="m" horiz-adv-x="1824" d="M162 0l223 733l76 291h125l-41 -168q70 72 160 119q109 57 217 57q129 0 198.5 -59.5t69.5 -161.5q84 86 160 135q133 86 268 86q51 0 93 -11t79 -32q51 -31 72.5 -78t21.5 -112q0 -74 -26 -164l-195 -635h-127l193 629q10 37 16 69.5t6 61.5q0 66 -29.5 103.5t-72.5 49 t-82 11.5q-162 0 -293 -131q-88 -90 -115 -177l-188 -616h-127l192 627l14.5 61.5t6.5 61.5q0 78 -39 122q-47 55 -154 56q-145 0 -262 -117q-92 -92 -129 -205l-184 -606h-127z" />
<glyph unicode="n" horiz-adv-x="1142" d="M162 0l231 754l29 104q25 92 37 166h129l-43 -170q100 96 198.5 137t194.5 41q139 0 203.5 -56t64.5 -163q0 -74 -32 -182l-193 -631h-127l195 637q23 72 22 125q0 78 -44 121t-142 43q-162 0 -283 -113q-92 -86 -123 -192l-190 -621h-127z" />
<glyph unicode="o" horiz-adv-x="1140" d="M231 354q0 94 27 187q57 215 201 354q160 158 375 158q178 0 279 -93.5t101 -257.5q0 -84 -26 -176q-63 -231 -207 -379q-164 -168 -385 -167q-180 0 -277 108q-88 98 -88 266zM367 342q0 -119 58 -186.5t183 -67.5q162 0 285 137q109 121 162 322q23 76 22 151 q0 109 -58 172.5t-179 73.5q-152 0 -271.5 -106.5t-169.5 -290.5q-32 -119 -32 -205z" />
<glyph unicode="p" horiz-adv-x="1153" d="M43 -410l319 1047l107 387h127l-37 -145q80 76 178.5 125t218.5 49q111 0 178.5 -36t100.5 -104q39 -70 39 -170q0 -86 -31 -187t-58.5 -161.5t-70.5 -126.5q-98 -145 -229 -216.5t-269 -71.5q-121 0 -196 77q-61 88 -76 105l-174 -572h-127zM420 328q0 -111 59.5 -174.5 t167.5 -63.5q78 0 149.5 34t131 95.5t100.5 136t68 162.5q35 115 34 205q0 109 -51 168q-57 66 -172 65q-90 0 -176 -47q-102 -55 -174 -168q-29 -43 -55 -102q-18 -41 -47 -127q-35 -104 -35 -184z" />
<glyph unicode="q" horiz-adv-x="1146" d="M205 297q0 94 28 184q37 111 41 121q49 121 121 211q94 115 180 168q115 72 263 72q111 0 181.5 -41t117.5 -129l51 141h123l-70 -193l-379 -1241h-127l174 572l-170 -129q-106 -53 -231 -53q-160 0 -238 96q-65 82 -65 221zM342 305q0 -33 10 -69q43 -154 203 -154 q70 0 125 20q74 29 156 101q57 49 104 132t78 179q16 53 26.5 109.5t10.5 101.5q0 29 -6 57q-16 80 -73.5 124t-158.5 44q-150 0 -270 -129q-109 -117 -160 -289q-18 -66 -31.5 -126t-13.5 -101z" />
<glyph unicode="r" horiz-adv-x="684" d="M168 0l276 903l27 121h125l-37 -139q84 96 162 132t178 36l74 -4l-39 -127q-43 6 -80 6q-92 0 -167 -40t-130 -116q-33 -45 -61 -123q-16 -43 -47 -149l-154 -500h-127z" />
<glyph unicode="s" horiz-adv-x="1026" d="M160 246q0 23 2 35h145q0 -197 221 -197q106 0 183 35q98 45 118 137q4 14 5 39q0 57 -45.5 94t-133.5 66q-37 12 -71.5 29.5t-57.5 25.5q-88 33 -131 97.5t-43 144.5q0 139 119 220t293 81q156 0 248 -90q80 -80 80 -189h-136q-16 88 -61 131t-137 43q-111 0 -191 -48 t-80 -126v-24q0 -41 15 -64q23 -35 96 -68l203 -86q80 -31 121 -79q49 -59 49 -144q0 -129 -115 -225q-125 -104 -328 -104q-135 0 -239 61q-129 76 -129 205z" />
<glyph unicode="t" horiz-adv-x="671" d="M299 127q0 41 14 90l215 703h-192l31 96h192l64 209l143 55l-80 -264h238l-31 -96h-238l-200 -662q-14 -45 -15 -82q0 -35 15.5 -54.5t42 -27.5t57.5 -8q51 0 107 16l-31 -102q-10 -8 -63.5 -14t-73.5 -6q-82 0 -132 28q-63 37 -63 119z" />
<glyph unicode="u" horiz-adv-x="1136" d="M250 223q0 33 3 52.5t13 54.5l215 702h135l-210 -688q-12 -43 -13 -80q0 -37 10.5 -66.5t26.5 -50t52 -38t91 -17.5q57 0 111.5 18.5t126.5 65.5q57 37 113 127q43 70 57 119l186 610h129l-260 -852l-49 -180h-127l39 145q-66 -68 -174.5 -116.5t-204.5 -48.5 q-145 0 -215 79q-55 64 -55 164z" />
<glyph unicode="v" horiz-adv-x="1034" d="M340 1032h149l91 -862l612 862h135l-725 -1032h-143z" />
<glyph unicode="w" horiz-adv-x="1708" d="M340 1032h139l35 -887l227 336l248 373l119 178h141l45 -872l576 872h129l-699 -1032h-129l-47 879l-592 -879h-135z" />
<glyph unicode="x" horiz-adv-x="1042" d="M39 0l561 526l-225 506h164l174 -418l440 418h129l-524 -497l243 -535h-165l-195 446l-465 -446h-137z" />
<glyph unicode="y" horiz-adv-x="1019" d="M154 -410l301 410l-115 1032h149l84 -874l613 874h135l-1030 -1442h-137z" />
<glyph unicode="z" horiz-adv-x="899" d="M86 0l37 123l844 801h-576l33 108h723l-35 -114l-838 -807h600l-34 -111h-754z" />
<glyph unicode="{" horiz-adv-x="753" d="M268 594l43 143h33q94 0 158 43q102 70 157 252l66 215q55 178 135 262q90 96 230 97h86l-46 -144h-94q-61 0 -108 -86q-29 -53 -66 -170l-84 -272q-43 -145 -170 -221q-41 -25 -121 -47q49 -14 72 -31q72 -49 72 -143q0 -35 -17 -95l-92 -305q-16 -53 -25.5 -90 t-9.5 -65q0 -68 62 -68h94l-43 -143h-86q-180 0 -180 165q0 37 10 88.5t27 104.5l65 215q27 92 27 152q0 90 -60 122q-37 20 -110 21h-25z" />
<glyph unicode="|" horiz-adv-x="452" d="M166 0l455 1487h120l-454 -1487h-121z" />
<glyph unicode="}" horiz-adv-x="753" d="M-18 -297l43 143h92q63 0 104 70q27 45 62 156l92 305q45 143 172 219q41 25 119 47q-47 14 -70 31q-72 51 -72 145q0 43 15 92l84 273q18 59 28.5 102t10.5 80q0 74 -58 74h-92l43 143h86q94 0 136 -42t42 -124q0 -78 -35 -192l-65 -213q-27 -92 -27 -152 q0 -100 74 -131q35 -14 121 -14l-43 -142q-111 0 -166 -28q-123 -63 -184 -269l-66 -215q-53 -176 -133 -262q-90 -96 -227 -96h-86z" />
<glyph unicode="~" horiz-adv-x="1150" d="M182 248q41 66 74 98q102 100 238 100q78 0 233 -61q78 -31 121 -31q82 0 135 68q8 10 21 33h106q-55 -90 -113 -136q-78 -61 -188 -61q-76 0 -217 61q-70 31 -137 31q-76 0 -131 -51q-16 -16 -39 -51h-103z" />
<glyph unicode="&#xa1;" horiz-adv-x="763" d="M182 -360l373 1124h113l-318 -1124h-168zM586 946l51 168h164l-51 -168h-164z" />
<glyph unicode="&#xa2;" horiz-adv-x="1132" d="M221 -266l185 311l-50 37q-37 35 -59 88q-10 25 -14 43q-10 41 -11 98q0 88 37 211q45 145 99 236q86 147 223 231q78 47 153.5 67.5t130.5 20.5q23 0 45.5 -2t38.5 -8l150 250h86l-156 -268q76 -27 109 -97q27 -55 26 -129q0 -41 -3 -61.5t-7 -30.5h-131q12 43 12 84 q0 92 -67 129l-481 -829q16 -14 69 -15q45 0 99.5 13.5t95.5 36.5q55 29 98 86q35 45 59 98h123q-8 -29 -16 -49q-55 -121 -195 -209q-53 -35 -130.5 -57.5t-149.5 -22.5q-68 0 -111 24l-168 -286h-90zM408 332q0 -68 16 -110t43 -68l473 813q-8 2 -26.5 4t-32.5 2 q-29 0 -59.5 -4t-84.5 -27q-84 -37 -163.5 -140.5t-122.5 -242.5q-18 -66 -30.5 -129t-12.5 -98z" />
<glyph unicode="&#xa3;" horiz-adv-x="1105" d="M127 -2l35 119h119l198 647h-147l35 110h149l50 161q26 81 59 136q88 156 219 229t311 73q111 0 182.5 -38t96.5 -100q10 -20 12 -37.5t2 -46.5q0 -35 -5 -60.5t-11 -43.5h-144q12 43 12 78q0 141 -188 141q-164 0 -274 -104q-86 -82 -138 -222l-49 -166h330l-37 -114 h-332l-196 -645h655l-35 -117h-909z" />
<glyph unicode="&#xa4;" horiz-adv-x="911" d="M63 233l130 103q-27 66 -27 145q0 115 50 226.5t155 210.5l-70 104l111 82l67 -100q80 51 156 74.5t153 23.5q160 0 259 -98l124 100l58 -82l-129 -104q31 -68 30 -152q0 -111 -54 -223.5t-152 -202.5l65 -100l-108 -86l-70 96q-154 -98 -309 -98q-156 0 -252 96 l-125 -94zM285 520q0 -111 68.5 -179.5t185.5 -68.5q141 0 276 104.5t180 252.5q16 59 17 104q0 109 -72 180.5t-188 71.5q-143 0 -274.5 -104.5t-176.5 -251.5q-8 -23 -12 -53.5t-4 -55.5z" />
<glyph unicode="&#xa5;" horiz-adv-x="1413" d="M168 342l20 70h553l60 194h-553l22 68h535l-283 813h174l236 -721l676 721h149l-768 -813h545l-23 -68h-571l-59 -194h573l-20 -70h-572l-104 -342h-142l105 342h-553z" />
<glyph unicode="&#xa6;" horiz-adv-x="1028" d="M74 -2l51 168h164l-51 -168h-164zM205 350l313 1123h170l-371 -1123h-112zM322 -2l51 168h164l-52 -168h-163zM451 350l315 1123h170l-371 -1123h-114z" />
<glyph unicode="&#xa7;" horiz-adv-x="1249" d="M260 49l33 107l86 -27q68 -20 147 -20q109 0 195 36q111 47 141 148q6 23 6 39q0 72 -120 125l-209 90q-49 31 -70 57q-27 35 -27 84v27q0 6 9 30q27 94 135 173q74 53 166 86q-72 47 -97 77q-35 43 -34 99q0 37 14 77q41 127 166 196t274 69q49 -2 102.5 -7.5 t108.5 -27.5l-33 -107q-55 20 -93 28.5t-111 8.5q-123 0 -197 -53q-61 -45 -84 -117q-4 -10 -4 -30q0 -63 108 -119l193 -99q90 -61 90 -129q0 -29 -12 -69q-25 -80 -131 -152q-45 -31 -152 -84q158 -74 158 -188q0 -37 -10 -68q-43 -143 -193 -231q-133 -78 -287 -78 q-74 0 -153.5 16.5t-114.5 32.5zM590 721q4 -43 82 -86q25 -14 76 -35q53 12 131 59q96 57 116 113q12 29 13 47q0 37 -39 69t-140 77l-47 -19q-90 -43 -147 -104q-23 -23 -37 -57.5t-8 -63.5z" />
<glyph unicode="&#xa8;" horiz-adv-x="559" d="M401 1233l54 176h151l-53 -176h-152zM760 1233l53 176h152l-54 -176h-151z" />
<glyph unicode="&#xa9;" horiz-adv-x="1654" d="M297 709q0 293 207 501.5t502 208.5q293 0 501.5 -201.5t208.5 -490.5q0 -295 -203.5 -507t-496.5 -212q-297 0 -508 204t-211 497zM377 709q0 -262 187.5 -445.5t451.5 -183.5q262 0 445.5 187.5t183.5 451.5q0 260 -192.5 444.5t-455.5 184.5q-260 0 -440 -187.5 t-180 -451.5zM616 700q0 227 102.5 352.5t295.5 125.5q213 0 295 -113q51 -70 51 -186h-143q8 76 -35 120q-53 55 -168 56q-131 0 -191.5 -92.5t-60.5 -274.5q0 -125 47 -211q66 -119 205 -119q104 0 159.5 55.5t63.5 145.5h129q0 -150 -98.5 -236.5t-257.5 -86.5 q-195 0 -294.5 122.5t-99.5 341.5z" />
<glyph unicode="&#xaa;" horiz-adv-x="628" d="M274 719l9 22h518l-8 -22h-519zM367 885q0 18 6 41q33 109 147 149q74 27 193 27h55l23 67q4 20 4 33q0 31 -21.5 49.5t-79.5 18.5q-70 0 -106 -29q-20 -16 -49 -63h-66q43 84 103.5 112.5t142.5 28.5q141 0 141 -107q0 -25 -8 -49l-88 -282l-19 -88h-61l23 84 q-27 -29 -70 -56q-68 -41 -131 -41t-101 28t-38 77zM434 901q0 -31 22.5 -51.5t67.5 -20.5q88 0 146 58q29 29 59 86l27 84l-148 -4q-84 -16 -123 -49q-31 -27 -47 -78q-4 -17 -4 -25z" />
<glyph unicode="&#xab;" horiz-adv-x="1155" d="M301 584l303 395h127l-299 -395l55 -402h-127zM608 584l310 395h126l-296 -395l53 -402h-127z" />
<glyph unicode="&#xac;" horiz-adv-x="1261" d="M315 436l35 111h914l-152 -492h-108l116 381h-805z" />
<glyph unicode="&#xad;" horiz-adv-x="552" d="M121 395l39 125h553l-39 -125h-553z" />
<glyph unicode="&#xae;" horiz-adv-x="1654" d="M297 709q0 293 207 501.5t502 208.5q293 0 501.5 -201.5t208.5 -490.5q0 -295 -203.5 -507t-496.5 -212q-297 0 -508 204t-211 497zM377 709q0 -262 187.5 -445.5t451.5 -183.5q262 0 445.5 187.5t183.5 451.5q0 260 -192.5 444.5t-455.5 184.5q-260 0 -440 -187.5 t-180 -451.5zM721 252v926h352q154 0 216.5 -60.5t62.5 -197.5q0 -102 -49 -160q-37 -43 -132 -88l224 -420h-144l-219 412h-180v-412h-131zM858 780h209q80 0 108.5 31t28.5 109q0 88 -45 122q-33 25 -90 25h-211v-287z" />
<glyph unicode="&#xaf;" horiz-adv-x="585" d="M451 1346l32 110h508l-33 -110h-507z" />
<glyph unicode="&#xb0;" horiz-adv-x="821" d="M463 1067q0 119 87 202t210 83q121 0 205 -86t84 -207q0 -117 -86 -201t-203 -84q-125 0 -211 86t-86 207zM553 1065q0 -84 60.5 -142.5t146.5 -58.5q82 0 139 57.5t57 141.5q0 82 -55 141.5t-135 59.5q-86 0 -149.5 -57.5t-63.5 -141.5z" />
<glyph unicode="&#xb1;" horiz-adv-x="1116" d="M43 2l33 107h1067l-33 -107h-1067zM242 709l32 106h480l147 481h107l-148 -481h481l-32 -106h-482l-147 -482h-107l148 482h-479z" />
<glyph unicode="&#xb2;" horiz-adv-x="585" d="M57 739l21 70l72 47q78 53 106 78l215 180q98 96 117 152q8 33 8 49q0 86 -104 86q-78 0 -132 -47q-43 -39 -61 -101h-76l13 29q33 68 79 111q37 33 94.5 52t102.5 19q70 0 115 -34.5t45 -98.5q0 -25 -10 -61q-16 -51 -70 -113q-45 -51 -121 -117q-84 -74 -213 -168 q-39 -29 -102 -71h372l-18 -62h-453z" />
<glyph unicode="&#xb3;" horiz-adv-x="573" d="M88 872q0 29 6 54h70q-8 -16 -8 -37q0 -45 37.5 -76t95.5 -31q70 0 129 35q70 41 90 111q2 4 5 23.5t3 29.5q0 59 -46 78.5t-126 19.5l16 56q96 0 152 28q72 37 94 119q4 20 4 35q0 39 -22 61q-31 31 -101 31q-84 0 -130 -34t-74 -101h-70q37 63 66 94q92 96 219 96 q98 0 145 -41q39 -35 39 -94q0 -27 -10 -61q-16 -53 -66.5 -94t-126.5 -66q43 -10 74 -44t31 -87q0 -12 -3 -29l-6 -26q-16 -63 -86 -119q-92 -74 -219 -74q-104 0 -147 45q-35 35 -35 98z" />
<glyph unicode="&#xb4;" horiz-adv-x="571" d="M498 1171l260 230h125l-293 -230h-92z" />
<glyph unicode="&#xb5;" horiz-adv-x="1169" d="M8 -395l443 1444h120l-213 -695q-14 -45 -14 -86q0 -92 70 -143q59 -43 141 -43q100 0 215 68q139 82 176 204l213 695h123l-254 -828q-14 -49 -14 -84q0 -57 45 -57q27 0 64.5 18.5t58.5 38.5l-29 -98q-47 -27 -93 -45.5t-73 -18.5q-45 0 -71.5 34t-26.5 120 q-61 -53 -105 -78q-133 -80 -264 -80q-119 0 -201 72q-27 23 -57 72l-156 -510h-98z" />
<glyph unicode="&#xb6;" horiz-adv-x="1161" d="M424 952q0 76 29 166q78 250 305 348q72 31 141.5 40.5t196.5 9.5h366l-16 -54h-146l-491 -1607h-59l491 1607h-207l-491 -1607h-58l260 847q-170 0 -245.5 66.5t-75.5 183.5z" />
<glyph unicode="&#xb7;" horiz-adv-x="565" d="M350 442l56 179h155l-55 -179h-156z" />
<glyph unicode="&#x2219;" horiz-adv-x="565" d="M350 442l56 179h155l-55 -179h-156z" />
<glyph unicode="&#xb8;" horiz-adv-x="1382" d="M406 -328l32 54l66 -25q74 -25 112 -25q55 0 93 29q27 20 30 40l6 30v14q0 27 -17 38t-48 11q-10 0 -39 -2t-43 -2l60 96q24 39 28 52h51l-49 -86h33q63 0 94 -13q53 -20 53 -78q0 -10 -10 -51t-57 -73q-39 -27 -103 -46q-14 -4 -35.5 -7t-54.5 -3q-47 0 -80 10z" />
<glyph unicode="&#xb9;" horiz-adv-x="587" d="M287 739l194 639l-61 -39q-51 -29 -133 -65l20 65q43 16 102.5 50t100.5 61h63l-217 -711h-69z" />
<glyph unicode="&#xba;" horiz-adv-x="669" d="M274 719l9 22h518l-8 -22h-519zM393 975q0 43 17 96q45 147 157 217q80 49 162 49q94 0 135 -53q35 -45 35 -117q0 -53 -14 -96q-35 -121 -129 -197q-86 -70 -185 -69q-90 0 -134 46t-44 124zM459 965q0 -106 125 -107q92 0 164 84q51 61 73 131q4 16 10.5 47t6.5 47 q0 53 -25 82q-31 35 -100 35q-94 0 -154 -61q-51 -51 -82 -154q-18 -59 -18 -104z" />
<glyph unicode="&#xbb;" horiz-adv-x="1155" d="M174 182l301 402l-57 395h127l69 -395l-313 -402h-127zM489 182l299 402l-55 395h125l70 -395l-314 -402h-125z" />
<glyph unicode="&#xbc;" horiz-adv-x="1179" d="M164 0l1026 1544h110l-1032 -1544h-104zM205 739l194 639l-61 -39q-51 -29 -133 -65l20 65q43 16 102.5 50t100.5 61h64l-218 -711h-69zM721 158l20 67l463 482h82l-149 -494h112l-18 -55h-111l-49 -162h-67l49 162h-332zM797 213h274l131 428z" />
<glyph unicode="&#xbd;" horiz-adv-x="1179" d="M164 0l1026 1544h110l-1032 -1544h-104zM205 739l194 639l-61 -39q-51 -29 -133 -65l20 65q43 16 102.5 50t100.5 61h64l-218 -711h-69zM729 0l21 70l71 47q78 53 107 78l215 180q98 96 117 151q8 33 8 49q0 86 -105 87q-78 0 -131 -48q-43 -39 -61 -100h-76q8 18 12 29 q33 68 80 110q37 33 94.5 52.5t102.5 19.5q70 0 114.5 -35t44.5 -98q0 -25 -10 -62q-16 -51 -69 -112q-45 -51 -121 -117q-84 -74 -213 -168q-39 -29 -103 -72h373l-18 -61h-453z" />
<glyph unicode="&#xbe;" horiz-adv-x="1179" d="M66 872q0 29 6 54h69q-8 -16 -8 -37q0 -45 38 -76t95 -31q70 0 129 35q70 41 90 111q2 4 5.5 23.5t3.5 29.5q0 59 -46.5 78.5t-125.5 19.5l16 56q96 0 151 28q72 37 95 119q4 20 4 35q0 39 -23 61q-31 31 -100 31q-84 0 -130 -34t-75 -101h-70q37 63 66 94q92 96 219 96 q98 0 146 -41q39 -35 38 -94q0 -27 -10 -61q-16 -53 -66.5 -94t-125.5 -66q43 -10 73.5 -44t30.5 -87q0 -12 -3 -29l-5 -26q-16 -63 -86 -119q-92 -74 -219 -74q-104 0 -148 45q-34 35 -34 98zM164 0l1026 1544h110l-1032 -1544h-104zM713 160l20 67l463 482h82l-150 -494 h113l-18 -55h-111l-49 -162h-68l49 162h-331zM788 215h275l131 428z" />
<glyph unicode="&#xbf;" horiz-adv-x="1011" d="M129 -127q0 53 18 119q31 111 132 207q41 39 108 94l203 153q102 78 123 132q8 20 32.5 101t26.5 93h119l-70 -225l-25 -41q-13 -20 -28 -35q-39 -41 -197 -158q-248 -184 -292 -336q-14 -45 -15 -83q0 -84 68 -130q57 -37 145 -36q47 0 124 6t122 22l-35 -110 q-121 -23 -213 -23q-43 0 -67.5 4t-32.5 4q-113 12 -174 68q-72 63 -72 174zM803 946l51 166h160l-51 -166h-160z" />
<glyph unicode="&#xc0;" horiz-adv-x="1347" d="M23 0l1028 1479h155l119 -1479h-119l-32 399h-750l-279 -399h-122zM504 516h657l-74 836zM916 1868h125l118 -230h-90z" />
<glyph unicode="&#xc1;" horiz-adv-x="1347" d="M23 0l1028 1479h155l119 -1479h-119l-32 399h-750l-279 -399h-122zM504 516h657l-74 836zM1086 1634l260 230h125l-293 -230h-92z" />
<glyph unicode="&#xc2;" horiz-adv-x="1347" d="M23 0l1028 1479h155l119 -1479h-119l-32 399h-750l-279 -399h-122zM504 516h657l-74 836zM899 1638l260 232h123l121 -232h-90l-111 166l-213 -166h-90z" />
<glyph unicode="&#xc3;" horiz-adv-x="1347" d="M23 0l1028 1479h155l119 -1479h-119l-32 399h-750l-279 -399h-122zM504 516h657l-74 836zM859 1638q39 76 99 120t136 44q27 0 119 -26q43 -12 63 -13q43 0 71 15.5t60 48.5h72q-33 -70 -99.5 -121t-137.5 -51q-27 0 -84.5 22.5t-98.5 22.5q-45 0 -69.5 -12.5 t-55.5 -49.5h-75z" />
<glyph unicode="&#xc4;" horiz-adv-x="1347" d="M23 0l1028 1479h155l119 -1479h-119l-32 399h-750l-279 -399h-122zM504 516h657l-74 836zM893 1639l54 176h151l-53 -176h-152zM1252 1639l53 176h152l-54 -176h-151z" />
<glyph unicode="&#xc5;" horiz-adv-x="1347" d="M23 0l1028 1479h155l119 -1479h-119l-32 399h-750l-279 -399h-122zM504 516h657l-74 836zM1059 1745q0 18 6 37q18 59 73.5 102t113.5 43q51 0 81.5 -28.5t30.5 -77.5q0 -18 -6 -41q-18 -59 -73.5 -100.5t-116.5 -41.5q-47 0 -78 31t-31 76zM1108 1753q0 -31 21.5 -50 t54.5 -19q43 0 79 26.5t48 69.5q4 20 4 28q0 74 -78 74q-41 0 -76.5 -28.5t-48.5 -71.5q-4 -21 -4 -29z" />
<glyph unicode="&#xc6;" horiz-adv-x="2039" d="M25 0l1321 1470h1038l-39 -120h-807l-74 -535h680l-35 -115h-661l-82 -589h619l-35 -111h-742l54 406h-721l-365 -406h-151zM643 518h639l115 840z" />
<glyph unicode="&#xc7;" horiz-adv-x="1376" d="M328 481q0 78 12 156t43 178q115 371 377 549q199 135 426 135q291 0 389 -164q47 -80 47 -235h-149v39q0 104 -46 159q-74 92 -270 93q-168 0 -321 -121q-190 -150 -295 -443q-59 -170 -60 -311q0 -195 104.5 -308.5t262.5 -113.5q166 0 289 103q94 78 110 149h154 q-10 -102 -162 -223q-180 -143 -399 -143l-52 -84q70 0 105 -11q74 -20 74 -84q0 -18 -6 -43q-12 -45 -56.5 -75.5t-103.5 -47.5q-25 -12 -105 -12q-35 0 -65 6l-125 39l33 56q41 -16 65 -23q78 -25 115 -25q53 0 90 29q27 20 37 51q4 20 4 27q0 29 -23.5 42t-60.5 13 q-16 0 -32.5 -2t-31.5 -4q8 20 48 84l38 64q-180 18 -299 116q-161 135 -161 385z" />
<glyph unicode="&#xc8;" horiz-adv-x="1206" d="M170 0l453 1479h882l-37 -117h-745l-164 -539h721l-37 -116h-721l-180 -590h791l-35 -117h-928zM899 1868h125l118 -230h-90z" />
<glyph unicode="&#xc9;" horiz-adv-x="1206" d="M170 0l453 1479h882l-37 -117h-745l-164 -539h721l-37 -116h-721l-180 -590h791l-35 -117h-928zM1030 1638l260 230h125l-293 -230h-92z" />
<glyph unicode="&#xca;" horiz-adv-x="1206" d="M170 0l453 1479h882l-37 -117h-745l-164 -539h721l-37 -116h-721l-180 -590h791l-35 -117h-928zM833 1638l260 232h123l121 -232h-90l-111 166l-213 -166h-90z" />
<glyph unicode="&#xcb;" horiz-adv-x="1216" d="M170 0l453 1479h882l-37 -117h-745l-164 -539h721l-37 -116h-721l-180 -590h791l-35 -117h-928zM819 1639l54 176h151l-53 -176h-152zM1178 1639l53 176h152l-54 -176h-151z" />
<glyph unicode="&#xcc;" horiz-adv-x="438" d="M152 0l452 1479h137l-452 -1479h-137zM473 1868h125l118 -230h-90z" />
<glyph unicode="&#xcd;" horiz-adv-x="438" d="M152 0l452 1479h137l-452 -1479h-137zM631 1638l260 230h125l-293 -230h-92z" />
<glyph unicode="&#xce;" horiz-adv-x="438" d="M152 0l452 1479h137l-452 -1479h-137zM442 1638l260 232h123l121 -232h-90l-111 166l-213 -166h-90z" />
<glyph unicode="&#xcf;" horiz-adv-x="438" d="M152 0l452 1479h137l-452 -1479h-137zM444 1639l54 176h151l-53 -176h-152zM803 1639l53 176h152l-54 -176h-151z" />
<glyph unicode="&#xd0;" horiz-adv-x="1497" d="M182 0l215 705h-176l37 124h178l195 637h512q98 0 196 -34q166 -59 232 -195q45 -98 45 -213q0 -121 -51 -287q-59 -195 -166 -346q-94 -135 -209 -213q-158 -109 -369 -151q-129 -27 -250 -27h-389zM356 119h318q145 0 300.5 64.5t256.5 183.5q61 70 109.5 159.5 t86.5 214.5q20 70 29.5 138.5t9.5 126.5q0 31 -2 49t-4 41q-29 125 -130 190.5t-283 65.5h-314l-160 -523h185l-37 -124h-186z" />
<glyph unicode="&#xd1;" horiz-adv-x="1464" d="M170 0l453 1479h153l434 -1307l400 1307h137l-453 -1479h-172l-426 1276l-389 -1276h-137zM932 1638q39 76 99 120t136 44q27 0 119 -26q43 -12 63 -13q43 0 71 15.5t60 48.5h72q-33 -70 -99.5 -121t-137.5 -51q-27 0 -84.5 22.5t-98.5 22.5q-45 0 -69.5 -12.5 t-55.5 -49.5h-75z" />
<glyph unicode="&#xd2;" horiz-adv-x="1613" d="M315 496q0 115 35 231q109 360 299 545q227 221 600 221q199 0 326 -147.5t127 -378.5q0 -61 -6 -114.5t-25 -115.5q-111 -401 -358 -598q-209 -166 -482 -166q-258 0 -395 160q-121 140 -121 363zM467 504q0 -184 96 -293q106 -121 307 -121q221 0 390.5 173t257.5 480 q29 104 28 203q0 184 -88 303q-96 131 -266 131q-268 0 -449 -186q-164 -170 -247 -483q-14 -53 -21.5 -102.5t-7.5 -104.5zM1022 1868h125l118 -230h-90z" />
<glyph unicode="&#xd3;" horiz-adv-x="1613" d="M315 496q0 115 35 231q109 360 299 545q227 221 600 221q199 0 326 -147.5t127 -378.5q0 -61 -6 -114.5t-25 -115.5q-111 -401 -358 -598q-209 -166 -482 -166q-258 0 -395 160q-121 140 -121 363zM467 504q0 -184 96 -293q106 -121 307 -121q221 0 390.5 173t257.5 480 q29 104 28 203q0 184 -88 303q-96 131 -266 131q-268 0 -449 -186q-164 -170 -247 -483q-14 -53 -21.5 -102.5t-7.5 -104.5zM1190 1638l260 230h125l-293 -230h-92z" />
<glyph unicode="&#xd4;" horiz-adv-x="1613" d="M315 496q0 115 35 231q109 360 299 545q227 221 600 221q199 0 326 -147.5t127 -378.5q0 -61 -6 -114.5t-25 -115.5q-111 -401 -358 -598q-209 -166 -482 -166q-258 0 -395 160q-121 140 -121 363zM467 504q0 -184 96 -293q106 -121 307 -121q221 0 390.5 173t257.5 480 q29 104 28 203q0 184 -88 303q-96 131 -266 131q-268 0 -449 -186q-164 -170 -247 -483q-14 -53 -21.5 -102.5t-7.5 -104.5zM997 1638l260 232h123l121 -232h-90l-111 166l-213 -166h-90z" />
<glyph unicode="&#xd5;" horiz-adv-x="1613" d="M315 496q0 115 35 231q109 360 299 545q227 221 600 221q199 0 326 -147.5t127 -378.5q0 -61 -6 -114.5t-25 -115.5q-111 -401 -358 -598q-209 -166 -482 -166q-258 0 -395 160q-121 140 -121 363zM467 504q0 -184 96 -293q106 -121 307 -121q221 0 390.5 173t257.5 480 q29 104 28 203q0 184 -88 303q-96 131 -266 131q-268 0 -449 -186q-164 -170 -247 -483q-14 -53 -21.5 -102.5t-7.5 -104.5zM940 1638q39 76 99 120t136 44q27 0 119 -26q43 -12 63 -13q43 0 71 15.5t60 48.5h72q-33 -70 -99.5 -121t-137.5 -51q-27 0 -84.5 22.5t-98.5 22.5 q-45 0 -69.5 -12.5t-55.5 -49.5h-75z" />
<glyph unicode="&#xd6;" horiz-adv-x="1613" d="M315 496q0 115 35 231q109 360 299 545q227 221 600 221q199 0 326 -147.5t127 -378.5q0 -61 -6 -114.5t-25 -115.5q-111 -401 -358 -598q-209 -166 -482 -166q-258 0 -395 160q-121 140 -121 363zM467 504q0 -184 96 -293q106 -121 307 -121q221 0 390.5 173t257.5 480 q29 104 28 203q0 184 -88 303q-96 131 -266 131q-268 0 -449 -186q-164 -170 -247 -483q-14 -53 -21.5 -102.5t-7.5 -104.5zM999 1639l54 176h151l-53 -176h-152zM1358 1639l53 176h152l-54 -176h-151z" />
<glyph unicode="&#xd7;" horiz-adv-x="0" />
<glyph unicode="&#x141;" horiz-adv-x="0" />
<glyph unicode="&#xd8;" horiz-adv-x="1638" d="M131 37l238 194q-16 45 -25.5 106.5t-9.5 119.5q0 66 5 108.5t15 79.5l68 221q31 100 121 232q137 201 319 312.5t434 111.5q156 0 267 -56q96 -47 143 -129l225 185q12 -16 17 -25q20 -29 20 -33l-231 -190q20 -53 28.5 -106.5t8.5 -110.5q0 -76 -14.5 -151t-37.5 -148 q-55 -176 -163 -344q-119 -184 -256 -277q-219 -147 -496 -147q-162 0 -268 55l-138 119l-231 -189zM489 471q0 -76 21 -123l1065 881q-45 76 -86 106q-84 63 -227 64q-291 0 -492 -221q-76 -84 -138.5 -197t-96.5 -233q-16 -51 -31 -128t-15 -149zM530 272q76 -92 121 -118 q74 -45 203 -45q250 0 442 182q180 170 269 457q27 88 38 167.5t11 141.5q0 51 -3 72.5t-7 33.5z" />
<glyph unicode="&#xd9;" horiz-adv-x="1484" d="M326 332q0 98 26 192l293 955h137l-268 -873q-45 -150 -45 -219q-2 -12 -2 -37q0 -117 73.5 -186.5t211.5 -69.5q219 0 395 154q55 47 102 130t76 173l285 928h137l-297 -967q-23 -78 -68 -155.5t-96 -137.5q-98 -113 -272 -180q-154 -59 -297 -59q-233 0 -344 155 q-25 35 -36 84.5t-11 112.5zM1022 1868h125l118 -230h-90z" />
<glyph unicode="&#xda;" horiz-adv-x="1484" d="M326 332q0 98 26 192l293 955h137l-268 -873q-45 -150 -45 -219q-2 -12 -2 -37q0 -117 73.5 -186.5t211.5 -69.5q219 0 395 154q55 47 102 130t76 173l285 928h137l-297 -967q-23 -78 -68 -155.5t-96 -137.5q-98 -113 -272 -180q-154 -59 -297 -59q-233 0 -344 155 q-25 35 -36 84.5t-11 112.5zM1145 1638l260 230h125l-293 -230h-92z" />
<glyph unicode="&#xdb;" horiz-adv-x="1484" d="M326 332q0 98 26 192l293 955h137l-268 -873q-45 -150 -45 -219q-2 -12 -2 -37q0 -117 73.5 -186.5t211.5 -69.5q219 0 395 154q55 47 102 130t76 173l285 928h137l-297 -967q-23 -78 -68 -155.5t-96 -137.5q-98 -113 -272 -180q-154 -59 -297 -59q-233 0 -344 155 q-25 35 -36 84.5t-11 112.5zM981 1638l260 232h123l121 -232h-90l-111 166l-213 -166h-90z" />
<glyph unicode="&#xdc;" horiz-adv-x="1484" d="M326 332q0 98 26 192l293 955h137l-268 -873q-45 -150 -45 -219q-2 -12 -2 -37q0 -117 73.5 -186.5t211.5 -69.5q219 0 395 154q55 47 102 130t76 173l285 928h137l-297 -967q-23 -78 -68 -155.5t-96 -137.5q-98 -113 -272 -180q-154 -59 -297 -59q-233 0 -344 155 q-25 35 -36 84.5t-11 112.5zM958 1639l54 176h151l-53 -176h-152zM1317 1639l53 176h152l-54 -176h-151z" />
<glyph unicode="&#xdd;" horiz-adv-x="1255" d="M471 1475h162l231 -717l682 721h144l-797 -846l-193 -633h-137l195 635zM1012 1634l260 230h125l-293 -230h-92z" />
<glyph unicode="&#xde;" horiz-adv-x="1099" d="M74 -365l563 1835h133l-174 -569q72 76 169 125t220 49q113 0 178.5 -35.5t101 -106.5t35.5 -165q0 -88 -30 -186q-57 -188 -129 -295q-100 -145 -234 -219q-123 -68 -264 -68q-123 0 -197 76q-61 88 -75 106l-166 -547h-131zM451 344q0 -111 59 -174.5t168 -63.5 q78 0 149.5 34t130 93.5t100.5 137.5t68 164q35 115 35 202q0 111 -51 170q-57 66 -174 66q-92 0 -176 -47q-100 -55 -174 -168q-29 -43 -54.5 -100.5t-46.5 -129.5q-34 -96 -34 -184z" />
<glyph unicode="&#xdf;" horiz-adv-x="1273" d="M182 0l264 864q47 158 80 238q45 113 95 176q84 106 201.5 160.5t250.5 54.5q123 0 199 -56.5t76 -156.5q0 -39 -14.5 -89t-45.5 -87t-90 -84l-145 -113q-68 -57 -80 -98q-4 -10 -4 -31q0 -57 96 -121l106 -69q55 -43 82 -80q35 -49 35 -113q0 -43 -14 -86 q-51 -166 -201 -256q-123 -74 -260 -73q-66 0 -131.5 30.5t-91.5 81.5q-10 20 -14.5 45t-4.5 47q0 43 11 84q0 6 6 19h125q-16 -37 -17 -70q0 -57 43 -97t121 -40q70 0 148 47q104 63 139 172q8 27 8 57q0 86 -154.5 185.5t-154.5 197.5q0 39 10 70q25 86 186.5 202.5 t182.5 186.5q6 16 6 37q0 59 -39 102q-51 55 -152 56q-154 0 -262 -103q-96 -92 -143 -248l-320 -1042h-133z" />
<glyph unicode="&#xe0;" horiz-adv-x="1052" d="M158 197q0 35 12 75q37 121 139 207q78 66 162 92.5t170 36.5t180 10q35 0 67 -1t60 -1l37 123q14 43 14 82q0 135 -196 135q-125 0 -200 -49t-99 -133h-129q33 111 153 191q131 88 295 88q303 0 303 -209q0 -57 -20 -121l-164 -535q-12 -41 -31 -133q-10 -45 -8 -55 h-125l21 72q25 86 28 102q-104 -106 -219 -156q-90 -39 -176 -38q-82 0 -135 18q-68 25 -104 76q-16 23 -25.5 53.5t-9.5 69.5zM291 225q0 -68 49 -108.5t133 -40.5q168 0 279 106q96 92 145 267l25 77q-70 -2 -169.5 -4t-166.5 -12q-104 -18 -182 -77.5t-103 -143.5 q-10 -37 -10 -64zM637 1401h125l118 -230h-90z" />
<glyph unicode="&#xe1;" horiz-adv-x="1052" d="M158 197q0 35 12 75q37 121 139 207q78 66 162 92.5t170 36.5t180 10q35 0 67 -1t60 -1l37 123q14 43 14 82q0 135 -196 135q-125 0 -200 -49t-99 -133h-129q33 111 153 191q131 88 295 88q303 0 303 -209q0 -57 -20 -121l-164 -535q-12 -41 -31 -133q-10 -45 -8 -55 h-125l21 72q25 86 28 102q-104 -106 -219 -156q-90 -39 -176 -38q-82 0 -135 18q-68 25 -104 76q-16 23 -25.5 53.5t-9.5 69.5zM291 225q0 -68 49 -108.5t133 -40.5q168 0 279 106q96 92 145 267l25 77q-70 -2 -169.5 -4t-166.5 -12q-104 -18 -182 -77.5t-103 -143.5 q-10 -37 -10 -64zM817 1171l260 230h125l-293 -230h-92z" />
<glyph unicode="&#xe2;" horiz-adv-x="1052" d="M158 197q0 35 12 75q37 121 139 207q78 66 162 92.5t170 36.5t180 10q35 0 67 -1t60 -1l37 123q14 43 14 82q0 135 -196 135q-125 0 -200 -49t-99 -133h-129q33 111 153 191q131 88 295 88q303 0 303 -209q0 -57 -20 -121l-164 -535q-12 -41 -31 -133q-10 -45 -8 -55 h-125l21 72q25 86 28 102q-104 -106 -219 -156q-90 -39 -176 -38q-82 0 -135 18q-68 25 -104 76q-16 23 -25.5 53.5t-9.5 69.5zM291 225q0 -68 49 -108.5t133 -40.5q168 0 279 106q96 92 145 267l25 77q-70 -2 -169.5 -4t-166.5 -12q-104 -18 -182 -77.5t-103 -143.5 q-10 -37 -10 -64zM604 1171l260 232h123l121 -232h-90l-111 166l-213 -166h-90z" />
<glyph unicode="&#xe3;" horiz-adv-x="1052" d="M158 197q0 35 12 75q37 121 139 207q78 66 162 92.5t170 36.5t180 10q35 0 67 -1t60 -1l37 123q14 43 14 82q0 135 -196 135q-125 0 -200 -49t-99 -133h-129q33 111 153 191q131 88 295 88q303 0 303 -209q0 -57 -20 -121l-164 -535q-12 -41 -31 -133q-10 -45 -8 -55 h-125l21 72q25 86 28 102q-104 -106 -219 -156q-90 -39 -176 -38q-82 0 -135 18q-68 25 -104 76q-16 23 -25.5 53.5t-9.5 69.5zM291 225q0 -68 49 -108.5t133 -40.5q168 0 279 106q96 92 145 267l25 77q-70 -2 -169.5 -4t-166.5 -12q-104 -18 -182 -77.5t-103 -143.5 q-10 -37 -10 -64zM588 1171q39 76 99 120t136 44q27 0 119 -26q43 -12 63 -13q43 0 71 15.5t60 48.5h72q-33 -70 -99.5 -121t-137.5 -51q-27 0 -84.5 22.5t-98.5 22.5q-45 0 -69.5 -12.5t-55.5 -49.5h-75z" />
<glyph unicode="&#xe4;" horiz-adv-x="1052" d="M158 197q0 35 12 75q37 121 139 207q78 66 162 92.5t170 36.5t180 10q35 0 67 -1t60 -1l37 123q14 43 14 82q0 135 -196 135q-125 0 -200 -49t-99 -133h-129q33 111 153 191q131 88 295 88q303 0 303 -209q0 -57 -20 -121l-164 -535q-12 -41 -31 -133q-10 -45 -8 -55 h-125l21 72q25 86 28 102q-104 -106 -219 -156q-90 -39 -176 -38q-82 0 -135 18q-68 25 -104 76q-16 23 -25.5 53.5t-9.5 69.5zM291 225q0 -68 49 -108.5t133 -40.5q168 0 279 106q96 92 145 267l25 77q-70 -2 -169.5 -4t-166.5 -12q-104 -18 -182 -77.5t-103 -143.5 q-10 -37 -10 -64zM634 1233l54 176h151l-53 -176h-152zM993 1233l53 176h152l-54 -176h-151z" />
<glyph unicode="&#xe5;" horiz-adv-x="1052" d="M158 197q0 35 12 75q37 121 139 207q78 66 162 92.5t170 36.5t180 10q35 0 67 -1t60 -1l37 123q14 43 14 82q0 135 -196 135q-125 0 -200 -49t-99 -133h-129q33 111 153 191q131 88 295 88q303 0 303 -209q0 -57 -20 -121l-164 -535q-12 -41 -31 -133q-10 -45 -8 -55 h-125l21 72q25 86 28 102q-104 -106 -219 -156q-90 -39 -176 -38q-82 0 -135 18q-68 25 -104 76q-16 23 -25.5 53.5t-9.5 69.5zM291 225q0 -68 49 -108.5t133 -40.5q168 0 279 106q96 92 145 267l25 77q-70 -2 -169.5 -4t-166.5 -12q-104 -18 -182 -77.5t-103 -143.5 q-10 -37 -10 -64zM747 1278q0 18 6 37q18 59 73.5 102t113.5 43q51 0 81.5 -28.5t30.5 -77.5q0 -18 -6 -41q-18 -59 -73.5 -100.5t-116.5 -41.5q-47 0 -78 31t-31 76zM796 1286q0 -31 21.5 -50t54.5 -19q43 0 79 26.5t48 69.5q4 20 4 28q0 74 -78 74q-41 0 -76.5 -28.5 t-48.5 -71.5q-4 -21 -4 -29z" />
<glyph unicode="&#xe6;" horiz-adv-x="1681" d="M158 201q0 33 10 69q47 150 188.5 240t309.5 90h276q37 127 37 201q0 86 -44 118.5t-140 32.5q-84 0 -152 -32q-96 -47 -139 -148h-133q76 168 217 234q100 47 243 47q119 0 193 -52.5t74 -150.5q90 111 211 162q98 41 211 41q106 0 174 -37q55 -31 92 -96.5t37 -153.5 q0 -59 -13.5 -120.5t-40.5 -143.5h-733q-10 -35 -14 -53q-14 -55 -17.5 -78t-3.5 -38v-22q0 -217 220 -217q106 0 199 62.5t139 167.5h139q-80 -193 -252 -281q-125 -63 -260 -63q-139 0 -223 77q-74 68 -74 154q-39 -84 -189 -164q-127 -68 -270 -67q-131 0 -201.5 64.5 t-70.5 156.5zM291 215q0 -68 53 -99.5t131 -31.5q133 0 236.5 79t146.5 193l53 144h-293q-113 0 -201.5 -62.5t-115.5 -158.5q-10 -37 -10 -64zM1073 600h596q20 76 21 143q0 96 -51.5 146.5t-161.5 50.5q-141 0 -250 -94t-154 -246z" />
<glyph unicode="&#xe7;" horiz-adv-x="1015" d="M219 403q0 66 29 150q31 76 33 84q82 209 233 317q137 98 299 99q178 0 266 -99q72 -80 72 -209q0 -27 -2 -38h-135q0 139 -60 194q-45 43 -137 43q-170 0 -285 -131q-88 -100 -151 -287q-31 -96 -31 -176q0 -123 62.5 -193.5t177.5 -70.5q86 0 155 43q94 57 150 184h139 q-33 -117 -131 -211q-125 -121 -291 -120l-43 -86h39q59 0 88 -13q47 -20 47 -76q0 -10 -10 -50t-56 -72.5t-104 -49.5q-6 -2 -37.5 -5t-54.5 -3q-14 0 -30.5 1t-47.5 7l-120 39l30 54l64 -25q72 -25 112 -25q55 0 88 26t38.5 52.5t5.5 32.5q0 29 -20.5 40t-53.5 11 q-25 0 -40 -2t-30 -6l88 148q-168 0 -257 117.5t-89 305.5z" />
<glyph unicode="&#xe8;" horiz-adv-x="1177" d="M219 344q0 72 19 139q76 287 249 435q160 135 377 135q195 0 281 -105q68 -82 67 -225q0 -70 -12 -135q-18 -74 -22 -94h-799q-23 -86 -23 -150q0 -125 72 -192.5t197 -67.5q135 0 223 63q70 51 115 146h139q-57 -147 -183 -230t-296 -83q-209 0 -314 110q-90 96 -90 254 zM410 588h657q6 20 11 58t5 59q0 100 -43 163q-55 82 -180 82q-182 0 -313 -133q-98 -98 -137 -229zM637 1401h125l118 -230h-90z" />
<glyph unicode="&#xe9;" horiz-adv-x="1177" d="M219 344q0 72 19 139q76 287 249 435q160 135 377 135q195 0 281 -105q68 -82 67 -225q0 -70 -12 -135q-18 -74 -22 -94h-799q-23 -86 -23 -150q0 -125 72 -192.5t197 -67.5q135 0 223 63q70 51 115 146h139q-57 -147 -183 -230t-296 -83q-209 0 -314 110q-90 96 -90 254 zM410 588h657q6 20 11 58t5 59q0 100 -43 163q-55 82 -180 82q-182 0 -313 -133q-98 -98 -137 -229zM793 1171l260 230h125l-293 -230h-92z" />
<glyph unicode="&#xea;" horiz-adv-x="1177" d="M219 344q0 72 19 139q76 287 249 435q160 135 377 135q195 0 281 -105q68 -82 67 -225q0 -70 -12 -135q-18 -74 -22 -94h-799q-23 -86 -23 -150q0 -125 72 -192.5t197 -67.5q135 0 223 63q70 51 115 146h139q-57 -147 -183 -230t-296 -83q-209 0 -314 110q-90 96 -90 254 zM410 588h657q6 20 11 58t5 59q0 100 -43 163q-55 82 -180 82q-182 0 -313 -133q-98 -98 -137 -229zM588 1171l260 232h123l121 -232h-90l-111 166l-213 -166h-90z" />
<glyph unicode="&#xeb;" horiz-adv-x="1177" d="M219 344q0 72 19 139q76 287 249 435q160 135 377 135q195 0 281 -105q68 -82 67 -225q0 -70 -12 -135q-18 -74 -22 -94h-799q-23 -86 -23 -150q0 -125 72 -192.5t197 -67.5q135 0 223 63q70 51 115 146h139q-57 -147 -183 -230t-296 -83q-209 0 -314 110q-90 96 -90 254 zM410 588h657q6 20 11 58t5 59q0 100 -43 163q-55 82 -180 82q-182 0 -313 -133q-98 -98 -137 -229zM604 1233l54 176h151l-53 -176h-152zM963 1233l53 176h152l-54 -176h-151z" />
<glyph unicode="&#xec;" horiz-adv-x="460" d="M168 0l315 1032h127l-315 -1032h-127zM408 1401h125l118 -230h-90z" />
<glyph unicode="&#xed;" horiz-adv-x="460" d="M168 0l315 1032h127l-315 -1032h-127zM527 1171l260 230h125l-293 -230h-92z" />
<glyph unicode="&#xee;" horiz-adv-x="460" d="M168 0l315 1032h127l-315 -1032h-127zM340 1171l260 232h123l121 -232h-90l-111 166l-213 -166h-90z" />
<glyph unicode="&#xef;" horiz-adv-x="460" d="M168 0l315 1032h127l-315 -1032h-127zM348 1233l54 176h151l-53 -176h-152zM707 1233l53 176h152l-54 -176h-151z" />
<glyph unicode="&#xf0;" horiz-adv-x="1015" d="M211 283q0 47 8 100t29 119q63 205 155 334q160 223 392 223q10 0 36.5 2t42.5 2q92 0 163 -24.5t87 -82.5q25 74 37 121q43 150 58 244q6 29 8 58.5t2 60.5q0 76 -25 123l-227 -93l-8 68l200 80q-25 25 -57.5 35t-67.5 10q-55 0 -122 -23q-20 -6 -56 -22l52 119 q29 10 49 14q68 16 118 16q66 0 120.5 -20.5t94.5 -75.5l230 94l12 -65l-211 -86q25 -66 25 -166q0 -57 -6.5 -111.5t-24.5 -130.5q-59 -258 -135 -469q-113 -317 -246 -497q-170 -231 -369 -232q-145 0 -215 29q-149 62 -149 246zM340 346q0 -109 57.5 -168t147.5 -59 q18 0 39.5 3t48.5 11q135 43 252 221q88 135 149 312l47 159q-37 45 -63 68q-86 68 -191 68q-31 0 -47 -2.5t-53 -12.5q-152 -45 -240 -170q-66 -92 -120 -272q-27 -86 -27 -158z" />
<glyph unicode="&#xf1;" horiz-adv-x="1142" d="M162 0l231 754l29 104q25 92 37 166h129l-43 -170q100 96 198.5 137t194.5 41q139 0 203.5 -56t64.5 -163q0 -74 -32 -182l-193 -631h-127l195 637q23 72 22 125q0 78 -44 121t-142 43q-162 0 -283 -113q-92 -86 -123 -192l-190 -621h-127zM670 1171q39 76 99 120t136 44 q27 0 119 -26q43 -12 63 -13q43 0 71 15.5t60 48.5h72q-33 -70 -99.5 -121t-137.5 -51q-27 0 -84.5 22.5t-98.5 22.5q-45 0 -69.5 -12.5t-55.5 -49.5h-75z" />
<glyph unicode="&#xf2;" d="M231 354q0 94 27 187q57 215 201 354q160 158 375 158q178 0 279 -93.5t101 -257.5q0 -84 -26 -176q-63 -231 -207 -379q-164 -168 -385 -167q-180 0 -277 108q-88 98 -88 266zM367 342q0 -119 58 -186.5t183 -67.5q162 0 285 137q109 121 162 322q23 76 22 151 q0 109 -58 172.5t-179 73.5q-152 0 -271.5 -106.5t-169.5 -290.5q-32 -119 -32 -205zM666 1401h125l118 -230h-90z" />
<glyph unicode="&#xf3;" d="M231 354q0 94 27 187q57 215 201 354q160 158 375 158q178 0 279 -93.5t101 -257.5q0 -84 -26 -176q-63 -231 -207 -379q-164 -168 -385 -167q-180 0 -277 108q-88 98 -88 266zM367 342q0 -119 58 -186.5t183 -67.5q162 0 285 137q109 121 162 322q23 76 22 151 q0 109 -58 172.5t-179 73.5q-152 0 -271.5 -106.5t-169.5 -290.5q-32 -119 -32 -205zM842 1171l260 230h125l-293 -230h-92z" />
<glyph unicode="&#xf4;" d="M231 354q0 94 27 187q57 215 201 354q160 158 375 158q178 0 279 -93.5t101 -257.5q0 -84 -26 -176q-63 -231 -207 -379q-164 -168 -385 -167q-180 0 -277 108q-88 98 -88 266zM367 342q0 -119 58 -186.5t183 -67.5q162 0 285 137q109 121 162 322q23 76 22 151 q0 109 -58 172.5t-179 73.5q-152 0 -271.5 -106.5t-169.5 -290.5q-32 -119 -32 -205zM604 1171l260 232h123l121 -232h-90l-111 166l-213 -166h-90z" />
<glyph unicode="&#xf5;" d="M231 354q0 94 27 187q57 215 201 354q160 158 375 158q178 0 279 -93.5t101 -257.5q0 -84 -26 -176q-63 -231 -207 -379q-164 -168 -385 -167q-180 0 -277 108q-88 98 -88 266zM367 342q0 -119 58 -186.5t183 -67.5q162 0 285 137q109 121 162 322q23 76 22 151 q0 109 -58 172.5t-179 73.5q-152 0 -271.5 -106.5t-169.5 -290.5q-32 -119 -32 -205zM654 1171q39 76 99 120t136 44q27 0 119 -26q43 -12 63 -13q43 0 71 15.5t60 48.5h72q-33 -70 -99.5 -121t-137.5 -51q-27 0 -84.5 22.5t-98.5 22.5q-45 0 -69.5 -12.5t-55.5 -49.5h-75z " />
<glyph unicode="&#xf6;" d="M231 354q0 94 27 187q57 215 201 354q160 158 375 158q178 0 279 -93.5t101 -257.5q0 -84 -26 -176q-63 -231 -207 -379q-164 -168 -385 -167q-180 0 -277 108q-88 98 -88 266zM367 342q0 -119 58 -186.5t183 -67.5q162 0 285 137q109 121 162 322q23 76 22 151 q0 109 -58 172.5t-179 73.5q-152 0 -271.5 -106.5t-169.5 -290.5q-32 -119 -32 -205zM659 1233l54 176h151l-53 -176h-152zM1018 1233l53 176h152l-54 -176h-151z" />
<glyph unicode="&#xf7;" horiz-adv-x="1116" d="M166 463l33 108h1067l-33 -108h-1067zM518 217q0 6 4 27q12 45 55.5 77.5t88.5 32.5q35 0 57 -24.5t22 -59.5q0 -10 -4 -26q-14 -43 -57 -76t-86 -33q-80 0 -80 82zM686 758q0 14 9.5 45t51 62.5t87.5 31.5q37 0 59 -22.5t22 -59.5q0 -8 -4 -24q-14 -45 -57 -78t-86 -33 q-37 0 -59.5 20.5t-22.5 57.5z" />
<glyph unicode="&#xf8;" d="M68 12l178 148q-33 68 -33 164q0 90 33 200q70 223 225 365q182 164 428 164q193 0 281 -117l170 139l36 -49l-176 -143q31 -68 31 -156q0 -96 -37 -217q-68 -223 -233 -369q-180 -160 -406 -159q-102 0 -172.5 31.5t-116.5 92.5l-176 -143zM354 326q0 -35 6 -70l709 586 q-29 49 -79 76.5t-124 27.5q-174 0 -301 -119q-119 -111 -178 -303q-33 -106 -33 -198zM383 195q27 -47 87 -72t144 -25q162 0 287 125q113 115 172 307q27 86 27 170q0 49 -8 82z" />
<glyph unicode="&#xf9;" horiz-adv-x="1136" d="M250 223q0 33 3 52.5t13 54.5l215 702h135l-210 -688q-12 -43 -13 -80q0 -37 10.5 -66.5t26.5 -50t52 -38t91 -17.5q57 0 111.5 18.5t126.5 65.5q57 37 113 127q43 70 57 119l186 610h129l-260 -852l-49 -180h-127l39 145q-66 -68 -174.5 -116.5t-204.5 -48.5 q-145 0 -215 79q-55 64 -55 164zM703 1401h125l118 -230h-90z" />
<glyph unicode="&#xfa;" horiz-adv-x="1136" d="M250 223q0 33 3 52.5t13 54.5l215 702h135l-210 -688q-12 -43 -13 -80q0 -37 10.5 -66.5t26.5 -50t52 -38t91 -17.5q57 0 111.5 18.5t126.5 65.5q57 37 113 127q43 70 57 119l186 610h129l-260 -852l-49 -180h-127l39 145q-66 -68 -174.5 -116.5t-204.5 -48.5 q-145 0 -215 79q-55 64 -55 164zM834 1171l260 230h125l-293 -230h-92z" />
<glyph unicode="&#xfb;" horiz-adv-x="1136" d="M250 223q0 33 3 52.5t13 54.5l215 702h135l-210 -688q-12 -43 -13 -80q0 -37 10.5 -66.5t26.5 -50t52 -38t91 -17.5q57 0 111.5 18.5t126.5 65.5q57 37 113 127q43 70 57 119l186 610h129l-260 -852l-49 -180h-127l39 145q-66 -68 -174.5 -116.5t-204.5 -48.5 q-145 0 -215 79q-55 64 -55 164zM645 1171l260 232h123l121 -232h-90l-111 166l-213 -166h-90z" />
<glyph unicode="&#xfc;" horiz-adv-x="1136" d="M250 223q0 33 3 52.5t13 54.5l215 702h135l-210 -688q-12 -43 -13 -80q0 -37 10.5 -66.5t26.5 -50t52 -38t91 -17.5q57 0 111.5 18.5t126.5 65.5q57 37 113 127q43 70 57 119l186 610h129l-260 -852l-49 -180h-127l39 145q-66 -68 -174.5 -116.5t-204.5 -48.5 q-145 0 -215 79q-55 64 -55 164zM696 1233l54 176h151l-53 -176h-152zM1055 1233l53 176h152l-54 -176h-151z" />
<glyph unicode="&#xfd;" horiz-adv-x="1019" d="M154 -410l301 410l-115 1032h149l84 -874l613 874h135l-1030 -1442h-137zM785 1171l260 230h125l-293 -230h-92z" />
<glyph unicode="&#xfe;" horiz-adv-x="438" d="M172 0l451 1477h137l-101 -330h312q164 0 235 -33q49 -23 103 -94q47 -61 47 -160q0 -139 -88 -271t-232.5 -198.5t-322.5 -66.5h-305l-99 -324h-137zM442 436h322q225 0 354 146q45 51 70.5 120.5t25.5 135.5q0 61 -22 98q-33 51 -98.5 72.5t-116.5 21.5h-352z" />
<glyph unicode="&#xff;" horiz-adv-x="1019" d="M637 1233l54 176h151l-53 -176h-152zM996 1233l53 176h152l-54 -176h-151zM154 -410l301 410l-115 1032h149l84 -874l613 874h135l-1030 -1442h-137z" />
<glyph unicode="&#x131;" horiz-adv-x="460" d="M168 0l315 1032h127l-315 -1032h-127z" />
<glyph unicode="&#x152;" horiz-adv-x="2031" d="M252 461q0 70 10 134t39 153q49 160 113 270q72 123 185.5 227.5t271 168t296.5 63.5h1141l-35 -117h-628l-162 -531h600l-37 -118h-600l-180 -590h661l-35 -113h-1054q-125 10 -197 27q-217 49 -307 155q-39 45 -60.5 114t-21.5 157zM395 494q0 -27 4 -55.5t11 -59.5 q27 -117 144.5 -182.5t260.5 -65.5h318l374 1231h-313q-182 0 -324.5 -66.5t-244.5 -189.5q-41 -51 -86 -133q-66 -117 -99 -221q-45 -154 -45 -258z" />
<glyph unicode="&#x153;" horiz-adv-x="1839" d="M211 299q0 45 8 97.5t27 109.5q49 164 137 285q100 139 250 210q55 27 121.5 39.5t144.5 12.5q147 0 219 -84q43 -49 74 -162q98 123 139 154q123 92 314 92q168 0 241 -88q59 -70 60 -201q0 -29 -4.5 -63.5t-10.5 -65.5t-22 -88q-4 -16 -15 -47h-731l-26 -131 q-6 -37 -7 -70q0 -109 64 -164q55 -49 147 -49q115 0 211.5 67.5t133.5 165.5h141q-94 -184 -236 -268q-119 -72 -268 -71q-147 0 -222 60t-89 175q-176 -236 -459 -235q-160 0 -251 81.5t-91 237.5zM356 322q0 -109 59.5 -170.5t174.5 -61.5q141 0 256 98q123 104 182 297 q39 121 39 222q0 106 -47 163q-53 66 -170 66q-190 0 -318 -152q-92 -109 -149 -299q-27 -85 -27 -163zM1200 596h590q25 78 25 141q0 100 -54.5 156.5t-158.5 56.5t-199 -63q-135 -92 -203 -291z" />
<glyph unicode="&#x178;" horiz-adv-x="1327" d="M471 1475h162l231 -717l682 721h144l-797 -846l-193 -633h-137l195 635zM835 1639l54 176h151l-53 -176h-152zM1194 1639l53 176h152l-54 -176h-151z" />
<glyph unicode="&#x2c6;" horiz-adv-x="571" d="M391 1171l260 232h123l121 -232h-90l-111 166l-213 -166h-90z" />
<glyph unicode="&#x2da;" horiz-adv-x="530" d="M518 1278q0 18 6 37q18 59 73.5 102t113.5 43q51 0 81.5 -28.5t30.5 -77.5q0 -18 -6 -41q-18 -59 -73.5 -100.5t-116.5 -41.5q-47 0 -78 31t-31 76zM567 1286q0 -31 21.5 -50t54.5 -19q43 0 79 26.5t48 69.5q4 20 4 28q0 74 -78 74q-41 0 -76.5 -28.5t-48.5 -71.5 q-4 -21 -4 -29z" />
<glyph unicode="&#x2dc;" horiz-adv-x="579" d="M367 1171q39 76 99 120t136 44q27 0 119 -26q43 -12 63 -13q43 0 71 15.5t60 48.5h72q-33 -70 -99.5 -121t-137.5 -51q-27 0 -84.5 22.5t-98.5 22.5q-45 0 -69.5 -12.5t-55.5 -49.5h-75z" />
<glyph unicode="&#x2013;" horiz-adv-x="1155" d="M-10 395v109h1175v-109h-1175z" />
<glyph unicode="&#x2014;" horiz-adv-x="1558" d="M-10 395v119h1579v-119h-1579z" />
<glyph unicode="&#x2018;" horiz-adv-x="667" d="M545 1126h168l221 420h-109z" />
<glyph unicode="&#x2019;" horiz-adv-x="778" d="M573 1126l222 420h168l-220 -327l-61 -93h-109z" />
<glyph unicode="&#x201a;" horiz-adv-x="530" d="M74 -238l219 422h168l-180 -270l-99 -152h-108z" />
<glyph unicode="&#x201c;" horiz-adv-x="704" d="M422 1126l178 269l100 151h109l-219 -420h-168zM705 1126l178 269l100 151h109l-220 -420h-167z" />
<glyph unicode="&#x201d;" horiz-adv-x="692" d="M424 1126l219 420h168l-180 -268l-99 -152h-108zM698 1126l220 420h167l-180 -268l-98 -152h-109z" />
<glyph unicode="&#x201e;" horiz-adv-x="716" d="M6 -238l221 422h168q-41 -57 -180 -270l-100 -152h-109zM295 -238l219 422h168l-180 -270l-99 -152h-108z" />
<glyph unicode="&#x2022;" horiz-adv-x="823" d="M569 643q0 109 75 183.5t183 74.5q109 0 183.5 -74.5t74.5 -183.5t-74.5 -183.5t-183.5 -74.5t-183.5 74.5t-74.5 183.5z" />
<glyph unicode="&#x2026;" horiz-adv-x="1736" d="M260 0l55 178h158l-55 -178h-158zM791 0l55 178h155l-55 -178h-155zM1319 0l55 178h156l-55 -178h-156z" />
<glyph unicode="&#x2039;" horiz-adv-x="452" d="M281 584l311 395h125l-297 -395l53 -402h-125z" />
<glyph unicode="&#x203a;" horiz-adv-x="452" d="M147 182l302 402l-58 395h127l70 -395l-314 -402h-127z" />
<glyph unicode="&#x2122;" horiz-adv-x="1542" d="M39 1350v98h627v-98h-258v-715h-109v715h-260zM737 635v819h197l196 -618l166 614h205v-815h-104v743l-219 -743h-101l-225 741v-741h-115z" />
<glyph unicode="&#xe000;" horiz-adv-x="1030" d="M0 1030h1030v-1030h-1030v1030z" />
<glyph unicode="&#xfb01;" horiz-adv-x="1155" d="M862 0l315 1032h127l-315 -1032h-127zM1261 1307l47 155h127l-47 -155h-127zM262 0l281 920h-207l31 96h206l72 237q23 76 70 127q37 41 96 74q29 14 66.5 21.5t76.5 7.5q41 0 73 -4t56 -6l-32 -109q-12 0 -44 2t-49 2q-72 0 -112 -25q-57 -33 -82 -120l-64 -207h236 l-31 -96h-235l-281 -920h-127z" />
<glyph unicode="&#xfb02;" horiz-adv-x="1155" d="M862 0l453 1479h127l-453 -1479h-127zM262 0l281 920h-207l31 96h206l72 237q23 76 70 127q37 41 96 74q29 14 66.5 21.5t76.5 7.5q41 0 73 -4t56 -6l-32 -109q-12 0 -44 2t-49 2q-72 0 -112 -25q-57 -33 -82 -120l-64 -207h236l-31 -96h-235l-281 -920h-127z" />
<glyph unicode="&#xfb03;" horiz-adv-x="1849" d="M1557 0l315 1032h127l-315 -1032h-127zM1956 1307l47 155h127l-47 -155h-127zM956 0l281 920h-207l31 96h206l72 237q23 76 70 127q37 41 96 74q29 14 66.5 21.5t76.5 7.5q41 0 73 -4t56 -6l-32 -109q-12 0 -44 2t-49 2q-72 0 -112 -25q-57 -33 -82 -120l-64 -207h236 l-31 -96h-235l-281 -920h-127zM262 0l281 920h-207l31 96h206l72 237q23 76 70 127q37 41 96 74q29 14 66.5 21.5t76.5 7.5q41 0 73 -4t56 -6l-32 -109q-12 0 -44 2t-49 2q-72 0 -112 -25q-57 -33 -82 -120l-64 -207h236l-31 -96h-235l-281 -920h-127z" />
<glyph unicode="&#xfb04;" horiz-adv-x="1849" d="M1557 0l453 1479h127l-453 -1479h-127zM956 0l281 920h-207l31 96h206l72 237q23 76 70 127q37 41 96 74q29 14 66.5 21.5t76.5 7.5q41 0 73 -4t56 -6l-32 -109q-12 0 -44 2t-49 2q-72 0 -112 -25q-57 -33 -82 -120l-64 -207h236l-31 -96h-235l-281 -920h-127zM262 0 l281 920h-207l31 96h206l72 237q23 76 70 127q37 41 96 74q29 14 66.5 21.5t76.5 7.5q41 0 73 -4t56 -6l-32 -109q-12 0 -44 2t-49 2q-72 0 -112 -25q-57 -33 -82 -120l-64 -207h236l-31 -96h-235l-281 -920h-127z" />
</font>
</defs>
</svg>
